<svg class="main-svg" xmlns="http://www.w3.org/2000/svg" xmlns:xlink="http://www.w3.org/1999/xlink" width="700" height="500" style="" viewBox="0 0 700 500"><rect x="0" y="0" width="700" height="500" style="fill: rgb(255, 255, 255); fill-opacity: 1;"/><defs id="defs-2aae68"><g class="clips"><clipPath id="clip2aae68xyplot" class="plotclip"><rect width="331" height="320"/></clipPath><clipPath class="axesclip" id="clip2aae68x"><rect x="80" y="0" width="331" height="500"/></clipPath><clipPath class="axesclip" id="clip2aae68y"><rect x="0" y="100" width="700" height="320"/></clipPath><clipPath class="axesclip" id="clip2aae68xy"><rect x="80" y="100" width="331" height="320"/></clipPath></g><g class="gradients"/><g class="patterns"/></defs><g class="bglayer"><rect class="bg" x="80" y="100" width="331" height="320" style="fill: rgb(229, 236, 246); fill-opacity: 1; stroke-width: 0;"/></g><g class="layer-below"><g class="imagelayer"/><g class="shapelayer"/></g><g class="cartesianlayer"><g class="subplot xy"><g class="layer-subplot"><g class="shapelayer"/><g class="imagelayer"/></g><g class="minor-gridlayer"><g class="x"/><g class="y"/></g><g class="gridlayer"><g class="x"><path class="xgrid crisp" transform="translate(102.8,0)" d="M0,100v320" style="stroke: rgb(255, 255, 255); stroke-opacity: 1; stroke-width: 1px;"/><path class="xgrid crisp" transform="translate(174.15,0)" d="M0,100v320" style="stroke: rgb(255, 255, 255); stroke-opacity: 1; stroke-width: 1px;"/><path class="xgrid crisp" transform="translate(245.5,0)" d="M0,100v320" style="stroke: rgb(255, 255, 255); stroke-opacity: 1; stroke-width: 1px;"/><path class="xgrid crisp" transform="translate(316.85,0)" d="M0,100v320" style="stroke: rgb(255, 255, 255); stroke-opacity: 1; stroke-width: 1px;"/><path class="xgrid crisp" transform="translate(388.2,0)" d="M0,100v320" style="stroke: rgb(255, 255, 255); stroke-opacity: 1; stroke-width: 1px;"/></g><g class="y"><path class="ygrid crisp" transform="translate(0,396.38)" d="M80,0h331" style="stroke: rgb(255, 255, 255); stroke-opacity: 1; stroke-width: 1px;"/><path class="ygrid crisp" transform="translate(0,371.47)" d="M80,0h331" style="stroke: rgb(255, 255, 255); stroke-opacity: 1; stroke-width: 1px;"/><path class="ygrid crisp" transform="translate(0,350.40999999999997)" d="M80,0h331" style="stroke: rgb(255, 255, 255); stroke-opacity: 1; stroke-width: 1px;"/><path class="ygrid crisp" transform="translate(0,332.15999999999997)" d="M80,0h331" style="stroke: rgb(255, 255, 255); stroke-opacity: 1; stroke-width: 1px;"/><path class="ygrid crisp" transform="translate(0,316.07)" d="M80,0h331" style="stroke: rgb(255, 255, 255); stroke-opacity: 1; stroke-width: 1px;"/><path class="ygrid crisp" transform="translate(0,301.66999999999996)" d="M80,0h331" style="stroke: rgb(255, 255, 255); stroke-opacity: 1; stroke-width: 1px;"/><path class="ygrid crisp" transform="translate(0,206.97)" d="M80,0h331" style="stroke: rgb(255, 255, 255); stroke-opacity: 1; stroke-width: 1px;"/><path class="ygrid crisp" transform="translate(0,151.57)" d="M80,0h331" style="stroke: rgb(255, 255, 255); stroke-opacity: 1; stroke-width: 1px;"/><path class="ygrid crisp" transform="translate(0,112.26)" d="M80,0h331" style="stroke: rgb(255, 255, 255); stroke-opacity: 1; stroke-width: 1px;"/></g></g><g class="zerolinelayer"/><path class="xlines-below"/><path class="ylines-below"/><g class="overlines-below"/><g class="xaxislayer-below"/><g class="yaxislayer-below"/><g class="overaxes-below"/><g class="plot" transform="translate(80,100)" clip-path="url(#clip2aae68xyplot)"><g class="scatterlayer mlayer"><g class="trace scatter trace40fcc9" style="stroke-miterlimit: 2; opacity: 1;"><g class="fills"/><g class="errorbars"/><g class="lines"><path class="js-line" d="M22.8,259.43L165.5,238.16L308.2,22.25" style="vector-effect: none; fill: none; stroke: rgb(72, 209, 204); stroke-opacity: 1; stroke-dasharray: 15px, 6px, 3px, 6px; stroke-width: 3px; opacity: 1;"/></g><g class="points"><path class="point" transform="translate(22.8,259.43)" d="M4.33,-2.5V2.5L0,5L-4.33,2.5V-2.5L0,-5Z" style="opacity: 1; stroke-width: 0px; fill: rgb(72, 209, 204); fill-opacity: 1;"/><path class="point" transform="translate(165.5,238.16)" d="M4.33,-2.5V2.5L0,5L-4.33,2.5V-2.5L0,-5Z" style="opacity: 1; stroke-width: 0px; fill: rgb(72, 209, 204); fill-opacity: 1;"/><path class="point" transform="translate(308.2,22.25)" d="M4.33,-2.5V2.5L0,5L-4.33,2.5V-2.5L0,-5Z" style="opacity: 1; stroke-width: 0px; fill: rgb(72, 209, 204); fill-opacity: 1;"/></g><g class="text"/></g><g class="trace scatter trace538801" style="stroke-miterlimit: 2; opacity: 1;"><g class="fills"/><g class="errorbars"/><g class="lines"><path class="js-line" d="M22.8,297.75L165.5,265.5L308.2,248.7" style="vector-effect: none; fill: none; stroke: rgb(0, 250, 154); stroke-opacity: 1; stroke-dasharray: 3px, 3px; stroke-width: 3px; opacity: 1;"/></g><g class="points"><path class="point" transform="translate(22.8,297.75)" d="M-5.77,-2.5H5.77L0,5Z" style="opacity: 1; stroke-width: 0px; fill: rgb(0, 250, 154); fill-opacity: 1;"/><path class="point" transform="translate(165.5,265.5)" d="M-5.77,-2.5H5.77L0,5Z" style="opacity: 1; stroke-width: 0px; fill: rgb(0, 250, 154); fill-opacity: 1;"/><path class="point" transform="translate(308.2,248.7)" d="M-5.77,-2.5H5.77L0,5Z" style="opacity: 1; stroke-width: 0px; fill: rgb(0, 250, 154); fill-opacity: 1;"/></g><g class="text"/></g><g class="trace scatter trace76fcfb" style="stroke-miterlimit: 2; opacity: 1;"><g class="fills"/><g class="errorbars"/><g class="lines"><path class="js-line" d="M22.8,293.86L165.5,264.73L308.2,119.05" style="vector-effect: none; fill: none; stroke: rgb(123, 104, 238); stroke-opacity: 1; stroke-dasharray: 9px, 3px, 3px, 3px; stroke-width: 3px; opacity: 1;"/></g><g class="points"><path class="point" transform="translate(22.8,293.86)" d="M0,2.83l2.83,2.83l2.83,-2.83l-2.83,-2.83l2.83,-2.83l-2.83,-2.83l-2.83,2.83l-2.83,-2.83l-2.83,2.83l2.83,2.83l-2.83,2.83l2.83,2.83Z" style="opacity: 1; stroke-width: 0px; fill: rgb(123, 104, 238); fill-opacity: 1;"/><path class="point" transform="translate(165.5,264.73)" d="M0,2.83l2.83,2.83l2.83,-2.83l-2.83,-2.83l2.83,-2.83l-2.83,-2.83l-2.83,2.83l-2.83,-2.83l-2.83,2.83l2.83,2.83l-2.83,2.83l2.83,2.83Z" style="opacity: 1; stroke-width: 0px; fill: rgb(123, 104, 238); fill-opacity: 1;"/><path class="point" transform="translate(308.2,119.05)" d="M0,2.83l2.83,2.83l2.83,-2.83l-2.83,-2.83l2.83,-2.83l-2.83,-2.83l-2.83,2.83l-2.83,-2.83l-2.83,2.83l2.83,2.83l-2.83,2.83l2.83,2.83Z" style="opacity: 1; stroke-width: 0px; fill: rgb(123, 104, 238); fill-opacity: 1;"/></g><g class="text"/></g><g class="trace scatter trace0eb8da" style="stroke-miterlimit: 2; opacity: 1;"><g class="fills"/><g class="errorbars"/><g class="lines"><path class="js-line" d="M22.8,274.3L165.5,247.33L308.2,270.23" style="vector-effect: none; fill: none; stroke: rgb(60, 179, 113); stroke-opacity: 1; stroke-width: 3px; opacity: 1;"/></g><g class="points"><path class="point" transform="translate(22.8,274.3)" d="M6.5,0L0,6.5L-6.5,0L0,-6.5Z" style="opacity: 1; stroke-width: 0px; fill: rgb(60, 179, 113); fill-opacity: 1;"/><path class="point" transform="translate(165.5,247.33)" d="M6.5,0L0,6.5L-6.5,0L0,-6.5Z" style="opacity: 1; stroke-width: 0px; fill: rgb(60, 179, 113); fill-opacity: 1;"/><path class="point" transform="translate(308.2,270.23)" d="M6.5,0L0,6.5L-6.5,0L0,-6.5Z" style="opacity: 1; stroke-width: 0px; fill: rgb(60, 179, 113); fill-opacity: 1;"/></g><g class="text"/></g></g></g><g class="overplot"/><path class="xlines-above crisp" d="M0,0" style="fill: none;"/><path class="ylines-above crisp" d="M0,0" style="fill: none;"/><g class="overlines-above"/><g class="xaxislayer-above"><g class="xtick"><text text-anchor="middle" x="0" y="433" transform="translate(102.8,0)" style="font-family: 'Open Sans', verdana, arial, sans-serif; font-size: 12px; fill: rgb(42, 63, 95); fill-opacity: 1; white-space: pre; opacity: 1;">200</text></g><g class="xtick"><text text-anchor="middle" x="0" y="433" style="font-family: 'Open Sans', verdana, arial, sans-serif; font-size: 12px; fill: rgb(42, 63, 95); fill-opacity: 1; white-space: pre; opacity: 1;" transform="translate(174.15,0)">300</text></g><g class="xtick"><text text-anchor="middle" x="0" y="433" style="font-family: 'Open Sans', verdana, arial, sans-serif; font-size: 12px; fill: rgb(42, 63, 95); fill-opacity: 1; white-space: pre; opacity: 1;" transform="translate(245.5,0)">400</text></g><g class="xtick"><text text-anchor="middle" x="0" y="433" style="font-family: 'Open Sans', verdana, arial, sans-serif; font-size: 12px; fill: rgb(42, 63, 95); fill-opacity: 1; white-space: pre; opacity: 1;" transform="translate(316.85,0)">500</text></g><g class="xtick"><text text-anchor="middle" x="0" y="433" style="font-family: 'Open Sans', verdana, arial, sans-serif; font-size: 12px; fill: rgb(42, 63, 95); fill-opacity: 1; white-space: pre; opacity: 1;" transform="translate(388.2,0)">600</text></g></g><g class="yaxislayer-above"><g class="ytick"><text text-anchor="end" x="79" y="3.15" transform="translate(0,396.38)" style="font-family: 'Open Sans', verdana, arial, sans-serif; font-size: 9px; fill: rgb(42, 63, 95); fill-opacity: 1; white-space: pre; opacity: 1;">5</text></g><g class="ytick"><text text-anchor="end" x="79" y="3.15" style="font-family: 'Open Sans', verdana, arial, sans-serif; font-size: 9px; fill: rgb(42, 63, 95); fill-opacity: 1; white-space: pre; opacity: 1;" transform="translate(0,371.47)">6</text></g><g class="ytick"><text text-anchor="end" x="79" y="3.15" style="font-family: 'Open Sans', verdana, arial, sans-serif; font-size: 9px; fill: rgb(42, 63, 95); fill-opacity: 1; white-space: pre; opacity: 1;" transform="translate(0,350.40999999999997)">7</text></g><g class="ytick"><text text-anchor="end" x="79" y="3.15" style="font-family: 'Open Sans', verdana, arial, sans-serif; font-size: 9px; fill: rgb(42, 63, 95); fill-opacity: 1; white-space: pre; opacity: 1;" transform="translate(0,332.15999999999997)">8</text></g><g class="ytick"><text text-anchor="end" x="79" y="3.15" style="font-family: 'Open Sans', verdana, arial, sans-serif; font-size: 9px; fill: rgb(42, 63, 95); fill-opacity: 1; white-space: pre; opacity: 1;" transform="translate(0,316.07)">9</text></g><g class="ytick"><text text-anchor="end" x="76" y="4.199999999999999" style="font-family: 'Open Sans', verdana, arial, sans-serif; font-size: 12px; fill: rgb(42, 63, 95); fill-opacity: 1; white-space: pre; opacity: 1;" transform="translate(0,301.66999999999996)">1e−7</text></g><g class="ytick"><text text-anchor="end" x="79" y="3.15" style="font-family: 'Open Sans', verdana, arial, sans-serif; font-size: 9px; fill: rgb(42, 63, 95); fill-opacity: 1; white-space: pre; opacity: 1;" transform="translate(0,206.97)">2</text></g><g class="ytick"><text text-anchor="end" x="79" y="3.15" style="font-family: 'Open Sans', verdana, arial, sans-serif; font-size: 9px; fill: rgb(42, 63, 95); fill-opacity: 1; white-space: pre; opacity: 1;" transform="translate(0,151.57)">3</text></g><g class="ytick"><text text-anchor="end" x="79" y="3.15" style="font-family: 'Open Sans', verdana, arial, sans-serif; font-size: 9px; fill: rgb(42, 63, 95); fill-opacity: 1; white-space: pre; opacity: 1;" transform="translate(0,112.26)">4</text></g></g><g class="overaxes-above"/></g></g><g class="polarlayer"/><g class="smithlayer"/><g class="ternarylayer"/><g class="geolayer"/><g class="funnelarealayer"/><g class="pielayer"/><g class="iciclelayer"/><g class="treemaplayer"/><g class="sunburstlayer"/><g class="glimages"/><defs id="topdefs-2aae68"><g class="clips"/><clipPath id="legend2aae68"><rect width="270" height="86" x="0" y="0"/></clipPath></defs><g class="layer-above"><g class="imagelayer"/><g class="shapelayer"/></g><g class="infolayer"><g class="legend" pointer-events="all" transform="translate(417.62,100)"><rect class="bg" shape-rendering="crispEdges" width="270" height="86" x="0" y="0" style="stroke: rgb(68, 68, 68); stroke-opacity: 1; fill: rgb(255, 255, 255); fill-opacity: 1; stroke-width: 0px;"/><g class="scrollbox" transform="" clip-path="url(#legend2aae68)"><g class="groups"><g class="traces" transform="translate(0,14.5)" style="opacity: 1;"><text class="legendtext" text-anchor="start" x="40" y="4.680000000000001" style="font-family: 'Open Sans', verdana, arial, sans-serif; font-size: 12px; fill: rgb(42, 63, 95); fill-opacity: 1; white-space: pre;">STD-3-int64_t-std::string</text><g class="layers" style="opacity: 1;"><g class="legendfill"/><g class="legendlines"><path class="js-line" d="M5,0h30" style="fill: none; stroke: rgb(72, 209, 204); stroke-opacity: 1; stroke-dasharray: 15px, 6px, 3px, 6px; stroke-width: 3px;"/></g><g class="legendsymbols"><g class="legendpoints"><path class="scatterpts" transform="translate(20,0)" d="M4.33,-2.5V2.5L0,5L-4.33,2.5V-2.5L0,-5Z" style="opacity: 1; stroke-width: 0px; fill: rgb(72, 209, 204); fill-opacity: 1;"/></g></g></g><rect class="legendtoggle" x="0" y="-9.5" width="264.015625" height="19" style="fill: rgb(0, 0, 0); fill-opacity: 0;"/></g><g class="traces" transform="translate(0,33.5)" style="opacity: 1;"><text class="legendtext" text-anchor="start" x="40" y="4.680000000000001" style="font-family: 'Open Sans', verdana, arial, sans-serif; font-size: 12px; fill: rgb(42, 63, 95); fill-opacity: 1; white-space: pre;">LLVM-3-int64_t-std::string</text><g class="layers" style="opacity: 1;"><g class="legendfill"/><g class="legendlines"><path class="js-line" d="M5,0h30" style="fill: none; stroke: rgb(0, 250, 154); stroke-opacity: 1; stroke-dasharray: 3px, 3px; stroke-width: 3px;"/></g><g class="legendsymbols"><g class="legendpoints"><path class="scatterpts" transform="translate(20,0)" d="M-5.77,-2.5H5.77L0,5Z" style="opacity: 1; stroke-width: 0px; fill: rgb(0, 250, 154); fill-opacity: 1;"/></g></g></g><rect class="legendtoggle" x="0" y="-9.5" width="264.015625" height="19" style="fill: rgb(0, 0, 0); fill-opacity: 0;"/></g><g class="traces" transform="translate(0,52.5)" style="opacity: 1;"><text class="legendtext" text-anchor="start" x="40" y="4.680000000000001" style="font-family: 'Open Sans', verdana, arial, sans-serif; font-size: 12px; fill: rgb(42, 63, 95); fill-opacity: 1; white-space: pre;">BOOST-3-int64_t-std::string</text><g class="layers" style="opacity: 1;"><g class="legendfill"/><g class="legendlines"><path class="js-line" d="M5,0h30" style="fill: none; stroke: rgb(123, 104, 238); stroke-opacity: 1; stroke-dasharray: 9px, 3px, 3px, 3px; stroke-width: 3px;"/></g><g class="legendsymbols"><g class="legendpoints"><path class="scatterpts" transform="translate(20,0)" d="M0,2.83l2.83,2.83l2.83,-2.83l-2.83,-2.83l2.83,-2.83l-2.83,-2.83l-2.83,2.83l-2.83,-2.83l-2.83,2.83l2.83,2.83l-2.83,2.83l2.83,2.83Z" style="opacity: 1; stroke-width: 0px; fill: rgb(123, 104, 238); fill-opacity: 1;"/></g></g></g><rect class="legendtoggle" x="0" y="-9.5" width="264.015625" height="19" style="fill: rgb(0, 0, 0); fill-opacity: 0;"/></g><g class="traces" transform="translate(0,71.5)" style="opacity: 1;"><text class="legendtext" text-anchor="start" x="40" y="4.680000000000001" style="font-family: 'Open Sans', verdana, arial, sans-serif; font-size: 12px; fill: rgb(42, 63, 95); fill-opacity: 1; white-space: pre;">LLVM_MAP_VECTOR-3-int64_t-std::string</text><g class="layers" style="opacity: 1;"><g class="legendfill"/><g class="legendlines"><path class="js-line" d="M5,0h30" style="fill: none; stroke: rgb(60, 179, 113); stroke-opacity: 1; stroke-width: 3px;"/></g><g class="legendsymbols"><g class="legendpoints"><path class="scatterpts" transform="translate(20,0)" d="M6.5,0L0,6.5L-6.5,0L0,-6.5Z" style="opacity: 1; stroke-width: 0px; fill: rgb(60, 179, 113); fill-opacity: 1;"/></g></g></g><rect class="legendtoggle" x="0" y="-9.5" width="264.015625" height="19" style="fill: rgb(0, 0, 0); fill-opacity: 0;"/></g></g></g><rect class="scrollbar" rx="20" ry="3" width="0" height="0" x="0" y="0" style="fill: rgb(128, 139, 164); fill-opacity: 1;"/></g><g class="g-gtitle"/><g class="g-xtitle"><text class="xtitle" x="245.5" y="461.3" text-anchor="middle" style="font-family: 'Open Sans', verdana, arial, sans-serif; font-size: 14px; fill: rgb(42, 63, 95); opacity: 1; font-weight: normal; white-space: pre;">Size of container on first dimension</text></g><g class="g-ytitle"><text class="ytitle" transform="rotate(-90,24.371875000000003,260)" x="24.371875000000003" y="260" text-anchor="middle" style="font-family: 'Open Sans', verdana, arial, sans-serif; font-size: 14px; fill: rgb(42, 63, 95); opacity: 1; font-weight: normal; white-space: pre;">Runtime (RDTSC) [s]</text></g></g></svg>